<?xml version="1.0" encoding="UTF-8"?>
<svg id="_레이어_1" data-name="레이어_1" xmlns="http://www.w3.org/2000/svg" version="1.1" viewBox="0 0 24 24">
  <!-- Generator: Adobe Illustrator 30.1.0, SVG Export Plug-In . SVG Version: 2.1.1 Build 136)  -->
  <defs>
    <style>
      .st0 {
        fill: #fff;
      }
    </style>
  </defs>
  <path class="st0" d="M12.7,14l5.7-5.7-1.4-1.5-4.3,4.3-2.2-2.1-1.4,1.4,3.6,3.6ZM8,18c-.6,0-1-.2-1.4-.6-.4-.4-.6-.9-.6-1.4V4c0-.6.2-1,.6-1.4.4-.4.9-.6,1.4-.6h12c.6,0,1,.2,1.4.6s.6.9.6,1.4v12c0,.6-.2,1-.6,1.4-.4.4-.9.6-1.4.6h-12ZM8,16h12V4h-12v12ZM4,22c-.6,0-1-.2-1.4-.6s-.6-.9-.6-1.4V6h2v14h14v2H4ZM8,4v12V4Z"/>
</svg>