<?xml version="1.0" encoding="UTF-8"?>
<svg id="_레이어_1" data-name="레이어_1" xmlns="http://www.w3.org/2000/svg" version="1.1" viewBox="0 0 16 16">
  <!-- Generator: Adobe Illustrator 30.1.0, SVG Export Plug-In . SVG Version: 2.1.1 Build 136)  -->
  <defs>
    <style>
      .st0 {
        fill: #fff;
      }

      .st1 {
        fill: #3bc1a8;
      }
    </style>
  </defs>
  <circle class="st0" cx="8" cy="7.7" r="6"/>
  <path class="st1" d="M16,8c0,4.4-3.6,8-8,8S0,12.4,0,8,3.6,0,8,0s8,3.6,8,8M12,5c-.3-.3-.8-.3-1.1,0,0,0,0,0,0,0l-3.5,4.4-2.1-2.1c-.3-.3-.8-.3-1.1,0-.3.3-.3.7,0,1l2.6,2.6c.3.3.8.3,1.1,0,0,0,0,0,0,0l4-5c.3-.3.3-.8,0-1.1h0Z"/>
</svg>